<svg width="162" height="146" viewBox="0 0 162 146" fill="none" xmlns="http://www.w3.org/2000/svg">
<path d="M162 73C162 113.317 125.735 146 81 146C36.2649 146 0 113.317 0 73C0 32.6832 36.2649 0 81 0C125.735 0 162 32.6832 162 73Z" fill="#D9D9D9"/>
<g filter="url(#filter0_d_344_246)">
<path d="M74.3633 41.6754V50.3121H72.9336L69.5469 44.3589V50.3121H68.1172V41.6754H69.5469L72.9336 47.6285V41.6754H74.3633ZM77.9727 42.7418V45.4605H81.5821V46.4214H77.9727V49.2457H81.9454V50.3121H76.543V41.6754H81.9454V42.7418H77.9727ZM88.7539 47.9449C88.7539 48.2574 88.6875 48.5621 88.5547 48.8589C88.4297 49.148 88.25 49.4058 88.0157 49.6324C87.7813 49.8511 87.4922 50.0269 87.1485 50.1597C86.8047 50.2925 86.4141 50.3589 85.9766 50.3589C85.7891 50.3589 85.5938 50.3472 85.3907 50.3238C85.1954 50.3082 84.9961 50.2769 84.793 50.23C84.5899 50.1832 84.3946 50.1207 84.2071 50.0425C84.0274 49.9566 83.8711 49.855 83.7383 49.7379L83.9844 48.73C84.0938 48.7925 84.2305 48.855 84.3946 48.9175C84.5664 48.9722 84.7422 49.0269 84.9219 49.0816C85.1016 49.1285 85.2813 49.1675 85.461 49.1988C85.6407 49.23 85.8086 49.2457 85.9649 49.2457C86.4414 49.2457 86.8047 49.1363 87.0547 48.9175C87.3125 48.691 87.4414 48.3589 87.4414 47.9214C87.4414 47.6558 87.3516 47.4293 87.1719 47.2418C86.9922 47.0543 86.7657 46.8863 86.4922 46.7379C86.2266 46.5816 85.9375 46.4293 85.625 46.2808C85.3125 46.1246 85.0196 45.9449 84.7461 45.7418C84.4727 45.5308 84.2461 45.2847 84.0664 45.0035C83.8868 44.7222 83.7969 44.3707 83.7969 43.9488C83.7969 43.566 83.8672 43.2261 84.0079 42.9293C84.1485 42.6324 84.336 42.3824 84.5704 42.1793C84.8125 41.9683 85.0899 41.8082 85.4024 41.6988C85.7227 41.5894 86.0586 41.5347 86.4102 41.5347C86.7696 41.5347 87.1329 41.5699 87.5 41.6402C87.8672 41.7027 88.1641 41.8082 88.3907 41.9566C88.3438 42.0582 88.2891 42.1714 88.2266 42.2964C88.1641 42.4136 88.1055 42.5269 88.0508 42.6363C87.9961 42.7379 87.9493 42.8238 87.9102 42.8941C87.8711 42.9644 87.8477 43.0035 87.8399 43.0113C87.793 42.9879 87.7383 42.9566 87.6758 42.9175C87.6211 42.8785 87.5391 42.8394 87.4297 42.8004C87.3204 42.7613 87.1758 42.7339 86.9961 42.7183C86.8164 42.7027 86.586 42.7066 86.3047 42.73C86.1485 42.7457 86 42.7925 85.8594 42.8707C85.7188 42.941 85.5938 43.0308 85.4844 43.1402C85.375 43.2496 85.2891 43.3746 85.2266 43.5152C85.1641 43.648 85.1329 43.7769 85.1329 43.9019C85.1329 44.2144 85.2227 44.4683 85.4024 44.6636C85.5821 44.8511 85.8047 45.0191 86.0704 45.1675C86.336 45.3082 86.625 45.4488 86.9375 45.5894C87.25 45.7222 87.5391 45.8863 87.8047 46.0816C88.0782 46.2769 88.3047 46.523 88.4844 46.8199C88.6641 47.1089 88.7539 47.4839 88.7539 47.9449ZM30.2129 80.3121L33.2364 71.6871H34.6309L37.6309 80.3121H36.1778L35.5567 78.5191H32.3106L31.6778 80.3121H30.2129ZM32.6387 77.5699H35.2168L33.9395 73.8433L32.6387 77.5699ZM45.1543 75.7066C45.2481 76.066 45.295 76.4683 45.295 76.9136C45.295 77.3589 45.2403 77.7925 45.1309 78.2144C45.0293 78.6285 44.8692 78.9957 44.6504 79.316C44.4395 79.6363 44.17 79.8941 43.8418 80.0894C43.5215 80.2769 43.1426 80.3707 42.7051 80.3707C42.4707 80.3707 42.2442 80.3472 42.0254 80.3004C41.8067 80.2535 41.6114 80.191 41.4395 80.1129C41.2676 80.0269 41.1231 79.9371 41.0059 79.8433C40.8965 79.7418 40.8301 79.6363 40.8067 79.5269V82.9136H39.377V73.7027H40.6543L40.8067 74.3707C40.9629 74.1519 41.1973 73.9761 41.5098 73.8433C41.8301 73.7105 42.1817 73.6441 42.5645 73.6441C42.8223 73.6441 43.084 73.6793 43.3496 73.7496C43.6153 73.8199 43.8614 73.9371 44.0879 74.1011C44.3223 74.2652 44.5332 74.48 44.7207 74.7457C44.9082 75.0113 45.0528 75.3316 45.1543 75.7066ZM42.2364 79.2691C42.4707 79.2691 42.6817 79.2105 42.8692 79.0933C43.0645 78.9761 43.2286 78.8199 43.3614 78.6246C43.502 78.4214 43.6114 78.1832 43.6895 77.9097C43.7676 77.6285 43.8067 77.3316 43.8067 77.0191C43.8067 76.7144 43.7715 76.4254 43.7012 76.1519C43.6309 75.8785 43.5293 75.6363 43.3965 75.4254C43.2715 75.2144 43.1153 75.0464 42.9278 74.9214C42.7481 74.7964 42.5371 74.7339 42.295 74.7339C42.0606 74.7339 41.8457 74.7925 41.6504 74.9097C41.4551 75.0269 41.2871 75.1871 41.1465 75.3902C41.0059 75.5855 40.8965 75.8199 40.8184 76.0933C40.7481 76.3589 40.7129 76.648 40.7129 76.9605C40.7129 77.273 40.7442 77.5699 40.8067 77.8511C40.877 78.1246 40.9786 78.3668 41.1114 78.5777C41.2442 78.7886 41.4043 78.9566 41.5918 79.0816C41.7793 79.2066 41.9942 79.2691 42.2364 79.2691ZM52.6543 75.7066C52.7481 76.066 52.795 76.4683 52.795 76.9136C52.795 77.3589 52.7403 77.7925 52.6309 78.2144C52.5293 78.6285 52.3692 78.9957 52.1504 79.316C51.9395 79.6363 51.67 79.8941 51.3418 80.0894C51.0215 80.2769 50.6426 80.3707 50.2051 80.3707C49.9707 80.3707 49.7442 80.3472 49.5254 80.3004C49.3067 80.2535 49.1114 80.191 48.9395 80.1129C48.7676 80.0269 48.6231 79.9371 48.5059 79.8433C48.3965 79.7418 48.3301 79.6363 48.3067 79.5269V82.9136H46.877V73.7027H48.1543L48.3067 74.3707C48.4629 74.1519 48.6973 73.9761 49.0098 73.8433C49.3301 73.7105 49.6817 73.6441 50.0645 73.6441C50.3223 73.6441 50.584 73.6793 50.8496 73.7496C51.1153 73.8199 51.3614 73.9371 51.5879 74.1011C51.8223 74.2652 52.0332 74.48 52.2207 74.7457C52.4082 75.0113 52.5528 75.3316 52.6543 75.7066ZM49.7364 79.2691C49.9707 79.2691 50.1817 79.2105 50.3692 79.0933C50.5645 78.9761 50.7286 78.8199 50.8614 78.6246C51.002 78.4214 51.1114 78.1832 51.1895 77.9097C51.2676 77.6285 51.3067 77.3316 51.3067 77.0191C51.3067 76.7144 51.2715 76.4254 51.2012 76.1519C51.1309 75.8785 51.0293 75.6363 50.8965 75.4254C50.7715 75.2144 50.6153 75.0464 50.4278 74.9214C50.2481 74.7964 50.0371 74.7339 49.795 74.7339C49.5606 74.7339 49.3457 74.7925 49.1504 74.9097C48.9551 75.0269 48.7871 75.1871 48.6465 75.3902C48.5059 75.5855 48.3965 75.8199 48.3184 76.0933C48.2481 76.3589 48.2129 76.648 48.2129 76.9605C48.2129 77.273 48.2442 77.5699 48.3067 77.8511C48.377 78.1246 48.4786 78.3668 48.6114 78.5777C48.7442 78.7886 48.9043 78.9566 49.0918 79.0816C49.2793 79.2066 49.4942 79.2691 49.7364 79.2691ZM55.7832 78.2964C55.7832 78.5621 55.8184 78.773 55.8887 78.9293C55.959 79.0777 56.0567 79.191 56.1817 79.2691C56.3067 79.3394 56.4473 79.3863 56.6036 79.4097C56.7676 79.4332 56.9434 79.4449 57.1309 79.4449V80.3121C57.0293 80.3277 56.9239 80.3394 56.8145 80.3472C56.7286 80.355 56.627 80.3589 56.5098 80.3589C56.3926 80.3668 56.2754 80.3707 56.1582 80.3707C56.0411 80.3707 55.9239 80.3668 55.8067 80.3589C55.6895 80.3511 55.584 80.3394 55.4903 80.3238C55.2246 80.2691 55.0176 80.1519 54.8692 79.9722C54.7207 79.7925 54.6075 79.5933 54.5293 79.3746C54.4512 79.148 54.4004 78.9293 54.377 78.7183C54.3614 78.5074 54.3536 78.3433 54.3536 78.2261V78.0855V71.2066H55.7832V78.2964ZM60.0489 80.3121H58.6192V73.7027H60.0489V80.3121ZM60.1778 71.5933C60.1778 71.8277 60.0957 72.0269 59.9317 72.191C59.7676 72.3472 59.5684 72.4254 59.334 72.4254C59.0996 72.4254 58.9004 72.3433 58.7364 72.1793C58.5801 72.0152 58.502 71.8199 58.502 71.5933C58.502 71.3589 58.584 71.1597 58.7481 70.9957C58.9121 70.8316 59.1075 70.7496 59.334 70.7496C59.5684 70.7496 59.7676 70.8316 59.9317 70.9957C60.0957 71.1597 60.1778 71.3589 60.1778 71.5933ZM66.9395 79.3863C66.6739 79.7222 66.3848 79.9722 66.0723 80.1363C65.7598 80.2925 65.3614 80.3707 64.877 80.3707C64.4161 80.3707 63.9981 80.2847 63.6231 80.1129C63.2481 79.9332 62.9278 79.6949 62.6621 79.398C62.3965 79.0933 62.1934 78.7379 62.0528 78.3316C61.92 77.9254 61.8536 77.4839 61.8536 77.0074C61.8536 76.5386 61.9278 76.1011 62.0762 75.6949C62.2246 75.2886 62.4317 74.9371 62.6973 74.6402C62.9629 74.3355 63.2832 74.0972 63.6582 73.9254C64.0332 73.7535 64.4512 73.6675 64.9121 73.6675C65.3965 73.6675 65.8106 73.7496 66.1543 73.9136C66.4981 74.0699 66.8028 74.316 67.0684 74.6519L66.4356 75.4136C66.3028 75.2574 66.1192 75.1168 65.8848 74.9918C65.6504 74.8589 65.3301 74.7925 64.9239 74.7925C64.6895 74.7925 64.4746 74.8472 64.2793 74.9566C64.084 75.066 63.9161 75.2183 63.7754 75.4136C63.6426 75.6089 63.5371 75.8394 63.459 76.105C63.3887 76.3707 63.3536 76.6597 63.3536 76.9722C63.3536 77.2847 63.3848 77.5777 63.4473 77.8511C63.5176 78.1168 63.6192 78.3511 63.752 78.5543C63.8848 78.7574 64.0411 78.9175 64.2207 79.0347C64.4082 79.1519 64.6231 79.2105 64.8653 79.2105C65.2168 79.2105 65.5098 79.1558 65.7442 79.0464C65.9864 78.9293 66.209 78.7886 66.4121 78.6246L66.9395 79.3863ZM73.6309 78.2613V78.355C73.6309 78.4175 73.6348 78.5113 73.6426 78.6363C73.6504 78.7535 73.6661 78.8746 73.6895 78.9996C73.7129 79.1246 73.7481 79.2379 73.795 79.3394C73.8496 79.441 73.92 79.5074 74.0059 79.5386L73.6309 80.3238C73.5293 80.3238 73.42 80.3004 73.3028 80.2535C73.1934 80.2066 73.084 80.1402 72.9746 80.0543C72.8731 79.9683 72.7832 79.8746 72.7051 79.773C72.6348 79.6636 72.5801 79.5464 72.5411 79.4214C72.4864 79.5543 72.3887 79.6793 72.2481 79.7964C72.1153 79.9058 71.9629 80.0074 71.7911 80.1011C71.6192 80.1871 71.4317 80.2535 71.2286 80.3004C71.0332 80.3472 70.8496 80.3707 70.6778 80.3707C70.4121 80.3707 70.1543 80.3355 69.9043 80.2652C69.6621 80.1949 69.4473 80.0816 69.2598 79.9254C69.0723 79.7691 68.9239 79.5621 68.8145 79.3043C68.7129 79.0464 68.6621 78.73 68.6621 78.355C68.6621 77.9957 68.7364 77.6871 68.8848 77.4293C69.0411 77.1636 69.2364 76.9488 69.4707 76.7847C69.7129 76.6129 69.9864 76.4879 70.2911 76.4097C70.5957 76.3238 70.9043 76.2808 71.2168 76.2808H72.2129C72.2129 75.898 72.1934 75.5933 72.1543 75.3668C72.1153 75.1402 72.0489 74.9761 71.9551 74.8746C71.8614 74.7652 71.7442 74.6988 71.6036 74.6754C71.4707 74.6441 71.3106 74.6285 71.1231 74.6285C70.9512 74.6285 70.7871 74.6519 70.6309 74.6988C70.4825 74.7379 70.3418 74.7886 70.209 74.8511C70.084 74.9058 69.9707 74.9683 69.8692 75.0386C69.7754 75.1089 69.7051 75.1636 69.6582 75.2027L69.1309 74.3941C69.209 74.3082 69.3262 74.2222 69.4825 74.1363C69.6387 74.0425 69.8184 73.9605 70.0215 73.8902C70.2246 73.8199 70.4434 73.7652 70.6778 73.7261C70.92 73.6793 71.17 73.6558 71.4278 73.6558C71.6621 73.6558 71.8887 73.6793 72.1075 73.7261C72.334 73.773 72.5371 73.8511 72.7168 73.9605C72.9043 74.0699 73.0645 74.2183 73.1973 74.4058C73.3379 74.5855 73.4356 74.8121 73.4903 75.0855C73.545 75.3589 73.5801 75.6363 73.5957 75.9175C73.6192 76.191 73.6309 76.4644 73.6309 76.7379V78.2613ZM72.2246 77.1129H71.4746C71.3184 77.1129 71.1543 77.1285 70.9825 77.1597C70.8106 77.191 70.6504 77.2496 70.502 77.3355C70.3536 77.4214 70.2286 77.5464 70.127 77.7105C70.0332 77.8668 69.9864 78.0699 69.9864 78.3199C69.9864 78.7105 70.0723 78.9918 70.2442 79.1636C70.4239 79.3355 70.6817 79.4214 71.0176 79.4214C71.252 79.4214 71.4746 79.3589 71.6856 79.2339C71.9043 79.1089 72.084 78.941 72.2246 78.73V77.1129ZM77.7559 78.3082C77.7559 78.5738 77.7911 78.7808 77.8614 78.9293C77.9317 79.0777 78.0293 79.191 78.1543 79.2691C78.2871 79.3472 78.4317 79.398 78.5879 79.4214C78.752 79.4371 78.9239 79.4449 79.1036 79.4449V80.3121C79.002 80.3277 78.9004 80.3394 78.7989 80.3472C78.7129 80.355 78.6075 80.3589 78.4825 80.3589C78.3653 80.3668 78.2481 80.3707 78.1309 80.3707C78.0137 80.3707 77.8926 80.3668 77.7676 80.3589C77.6504 80.3511 77.5489 80.3394 77.4629 80.3238C77.1973 80.2769 76.9903 80.1636 76.8418 79.9839C76.6934 79.7964 76.5801 79.5933 76.502 79.3746C76.4317 79.148 76.3848 78.9293 76.3614 78.7183C76.3457 78.5074 76.3379 78.3433 76.3379 78.2261V74.6636H75.4707V73.7027H76.3379V71.8277H77.7559V73.7027H78.8106V74.6636H77.7559V78.3082ZM82.1856 80.3121H80.7559V73.7027H82.1856V80.3121ZM82.3145 71.5933C82.3145 71.8277 82.2325 72.0269 82.0684 72.191C81.9043 72.3472 81.7051 72.4254 81.4707 72.4254C81.2364 72.4254 81.0371 72.3433 80.8731 72.1793C80.7168 72.0152 80.6387 71.8199 80.6387 71.5933C80.6387 71.3589 80.7207 71.1597 80.8848 70.9957C81.0489 70.8316 81.2442 70.7496 81.4707 70.7496C81.7051 70.7496 81.9043 70.8316 82.0684 70.9957C82.2325 71.1597 82.3145 71.3589 82.3145 71.5933ZM87.1192 73.6675C87.5723 73.6675 87.9825 73.7574 88.3496 73.9371C88.7168 74.1089 89.0293 74.3472 89.2871 74.6519C89.545 74.9566 89.7442 75.3121 89.8848 75.7183C90.0254 76.1246 90.0957 76.5621 90.0957 77.0308C90.0957 77.4996 90.0215 77.941 89.8731 78.355C89.7246 78.7613 89.5137 79.1168 89.2403 79.4214C88.9746 79.7183 88.6543 79.9527 88.2793 80.1246C87.9121 80.2886 87.502 80.3707 87.0489 80.3707C86.5879 80.3707 86.1661 80.2847 85.7832 80.1129C85.4082 79.941 85.0879 79.7027 84.8223 79.398C84.5645 79.0933 84.3653 78.7379 84.2246 78.3316C84.084 77.9254 84.0137 77.4839 84.0137 77.0074C84.0137 76.5308 84.0879 76.0855 84.2364 75.6714C84.3926 75.2574 84.6036 74.9058 84.8692 74.6168C85.1426 74.3199 85.4707 74.0894 85.8536 73.9254C86.2364 73.7535 86.6582 73.6675 87.1192 73.6675ZM87.0254 79.2574C87.2598 79.2574 87.4707 79.2027 87.6582 79.0933C87.8536 78.9761 88.0176 78.8199 88.1504 78.6246C88.2911 78.4214 88.4004 78.1832 88.4786 77.9097C88.5645 77.6363 88.6075 77.3433 88.6075 77.0308C88.6075 76.7183 88.5684 76.4254 88.4903 76.1519C88.42 75.8785 88.3184 75.6402 88.1856 75.4371C88.0606 75.2261 87.9043 75.0582 87.7168 74.9332C87.5293 74.8082 87.3184 74.7457 87.084 74.7457C86.8496 74.7457 86.6348 74.8043 86.4395 74.9214C86.2442 75.0386 86.0762 75.1988 85.9356 75.4019C85.8028 75.5972 85.6973 75.8316 85.6192 76.105C85.5489 76.3707 85.5137 76.6597 85.5137 76.9722C85.5137 77.2847 85.545 77.5816 85.6075 77.8629C85.6778 78.1363 85.7793 78.3746 85.9121 78.5777C86.045 78.7808 86.2012 78.9449 86.3809 79.0699C86.5684 79.1949 86.7832 79.2574 87.0254 79.2574ZM97.4082 80.3121H95.9786V76.7144C95.9786 76.4488 95.9668 76.1949 95.9434 75.9527C95.92 75.7105 95.8653 75.4957 95.7793 75.3082C95.6934 75.1207 95.5762 74.9761 95.4278 74.8746C95.2793 74.7652 95.0723 74.7105 94.8067 74.7105C94.7207 74.7105 94.6075 74.7222 94.4668 74.7457C94.334 74.7691 94.1934 74.8043 94.045 74.8511C93.9043 74.898 93.7676 74.9566 93.6348 75.0269C93.5098 75.0972 93.4161 75.1793 93.3536 75.273V75.3433V75.3668V77.9683V77.9918V80.3121H91.9356V73.7027H93.2012L93.3536 74.3707C93.4473 74.2847 93.5645 74.1988 93.7051 74.1129C93.8536 74.0191 94.0137 73.9371 94.1856 73.8668C94.3575 73.7964 94.5332 73.7418 94.7129 73.7027C94.8926 73.6558 95.0684 73.6324 95.2403 73.6324C95.5918 73.6324 95.8887 73.7066 96.1309 73.855C96.3731 74.0035 96.6153 74.1949 96.8575 74.4293C96.9903 74.5621 97.0918 74.7183 97.1621 74.898C97.2403 75.0699 97.295 75.2535 97.3262 75.4488C97.3653 75.6363 97.3887 75.8277 97.3965 76.023C97.4043 76.2183 97.4082 76.4097 97.4082 76.5972V80.0777V80.3121ZM104.111 72.7418V75.4605H107.721V76.4214H104.111V80.3121H102.682V71.6754H108.084V72.7418H104.111ZM114.295 78.2613V78.355C114.295 78.4175 114.299 78.5113 114.307 78.6363C114.314 78.7535 114.33 78.8746 114.354 78.9996C114.377 79.1246 114.412 79.2379 114.459 79.3394C114.514 79.441 114.584 79.5074 114.67 79.5386L114.295 80.3238C114.193 80.3238 114.084 80.3004 113.967 80.2535C113.857 80.2066 113.748 80.1402 113.639 80.0543C113.537 79.9683 113.447 79.8746 113.369 79.773C113.299 79.6636 113.244 79.5464 113.205 79.4214C113.15 79.5543 113.053 79.6793 112.912 79.7964C112.779 79.9058 112.627 80.0074 112.455 80.1011C112.283 80.1871 112.096 80.2535 111.893 80.3004C111.697 80.3472 111.514 80.3707 111.342 80.3707C111.076 80.3707 110.818 80.3355 110.568 80.2652C110.326 80.1949 110.111 80.0816 109.924 79.9254C109.736 79.7691 109.588 79.5621 109.479 79.3043C109.377 79.0464 109.326 78.73 109.326 78.355C109.326 77.9957 109.4 77.6871 109.549 77.4293C109.705 77.1636 109.9 76.9488 110.135 76.7847C110.377 76.6129 110.65 76.4879 110.955 76.4097C111.26 76.3238 111.568 76.2808 111.881 76.2808H112.877C112.877 75.898 112.857 75.5933 112.818 75.3668C112.779 75.1402 112.713 74.9761 112.619 74.8746C112.525 74.7652 112.408 74.6988 112.268 74.6754C112.135 74.6441 111.975 74.6285 111.787 74.6285C111.615 74.6285 111.451 74.6519 111.295 74.6988C111.147 74.7379 111.006 74.7886 110.873 74.8511C110.748 74.9058 110.635 74.9683 110.533 75.0386C110.439 75.1089 110.369 75.1636 110.322 75.2027L109.795 74.3941C109.873 74.3082 109.99 74.2222 110.147 74.1363C110.303 74.0425 110.482 73.9605 110.686 73.8902C110.889 73.8199 111.107 73.7652 111.342 73.7261C111.584 73.6793 111.834 73.6558 112.092 73.6558C112.326 73.6558 112.553 73.6793 112.772 73.7261C112.998 73.773 113.201 73.8511 113.381 73.9605C113.568 74.0699 113.729 74.2183 113.861 74.4058C114.002 74.5855 114.1 74.8121 114.154 75.0855C114.209 75.3589 114.244 75.6363 114.26 75.9175C114.283 76.191 114.295 76.4644 114.295 76.7379V78.2613ZM112.889 77.1129H112.139C111.982 77.1129 111.818 77.1285 111.647 77.1597C111.475 77.191 111.314 77.2496 111.166 77.3355C111.018 77.4214 110.893 77.5464 110.791 77.7105C110.697 77.8668 110.65 78.0699 110.65 78.3199C110.65 78.7105 110.736 78.9918 110.908 79.1636C111.088 79.3355 111.346 79.4214 111.682 79.4214C111.916 79.4214 112.139 79.3589 112.35 79.2339C112.568 79.1089 112.748 78.941 112.889 78.73V77.1129ZM116.404 79.7847L117.002 78.8355C117.158 78.9449 117.342 79.0464 117.553 79.1402C117.772 79.2339 118.045 79.2808 118.373 79.2808C118.803 79.2808 119.139 79.2144 119.381 79.0816C119.623 78.9488 119.744 78.7535 119.744 78.4957C119.744 78.3082 119.674 78.1597 119.533 78.0504C119.393 77.9332 119.213 77.8355 118.994 77.7574C118.783 77.6714 118.553 77.5933 118.303 77.523C118.061 77.4449 117.834 77.3511 117.623 77.2418C117.209 77.023 116.897 76.7925 116.686 76.5504C116.482 76.3082 116.381 75.9879 116.381 75.5894C116.381 75.2613 116.447 74.9722 116.58 74.7222C116.721 74.4722 116.9 74.2652 117.119 74.1011C117.338 73.9293 117.588 73.8004 117.869 73.7144C118.15 73.6285 118.436 73.5855 118.725 73.5855C119.115 73.5855 119.475 73.6285 119.803 73.7144C120.131 73.7925 120.447 73.9293 120.752 74.1246L120.295 75.0972C120.061 74.9644 119.807 74.8746 119.533 74.8277C119.26 74.773 118.99 74.7457 118.725 74.7457C118.436 74.7457 118.205 74.8121 118.033 74.9449C117.869 75.0699 117.787 75.2691 117.787 75.5425C117.787 75.7535 117.861 75.9214 118.01 76.0464C118.166 76.1636 118.365 76.2691 118.607 76.3629C118.85 76.4566 119.107 76.5504 119.381 76.6441C119.654 76.7379 119.908 76.8589 120.143 77.0074C120.385 77.148 120.584 77.3277 120.74 77.5464C120.897 77.7652 120.975 78.0464 120.975 78.3902C120.975 78.7261 120.908 79.0191 120.775 79.2691C120.643 79.5191 120.463 79.7261 120.236 79.8902C120.01 80.0543 119.748 80.1754 119.451 80.2535C119.154 80.3316 118.838 80.3707 118.502 80.3707C118.299 80.3707 118.111 80.3629 117.939 80.3472C117.768 80.3394 117.6 80.316 117.436 80.2769C117.272 80.2379 117.107 80.1793 116.943 80.1011C116.779 80.023 116.6 79.9175 116.404 79.7847ZM124.701 78.3082C124.701 78.5738 124.736 78.7808 124.807 78.9293C124.877 79.0777 124.975 79.191 125.1 79.2691C125.232 79.3472 125.377 79.398 125.533 79.4214C125.697 79.4371 125.869 79.4449 126.049 79.4449V80.3121C125.947 80.3277 125.846 80.3394 125.744 80.3472C125.658 80.355 125.553 80.3589 125.428 80.3589C125.311 80.3668 125.193 80.3707 125.076 80.3707C124.959 80.3707 124.838 80.3668 124.713 80.3589C124.596 80.3511 124.494 80.3394 124.408 80.3238C124.143 80.2769 123.936 80.1636 123.787 79.9839C123.639 79.7964 123.525 79.5933 123.447 79.3746C123.377 79.148 123.33 78.9293 123.307 78.7183C123.291 78.5074 123.283 78.3433 123.283 78.2261V74.6636H122.416V73.7027H123.283V71.8277H124.701V73.7027H125.756V74.6636H124.701V78.3082ZM68.4043 86.6754V87.6363H65.8262V95.3121H64.4082V87.6363H61.8301V86.6754H68.4043ZM73.7246 90.1324C73.5059 90.0699 73.2403 90.0347 72.9278 90.0269C72.6465 90.0269 72.3653 90.0621 72.084 90.1324C71.8106 90.1949 71.5918 90.3043 71.4278 90.4605V92.9683V92.9918V95.3121H70.0098V88.7027H71.2754L71.4278 89.3824C71.545 89.2652 71.6661 89.1597 71.7911 89.066C71.9239 88.9722 72.0762 88.898 72.2481 88.8433C72.42 88.7808 72.6231 88.7339 72.8575 88.7027C73.0918 88.6714 73.3809 88.6558 73.7246 88.6558V90.1324ZM80.0293 93.2613V93.355C80.0293 93.4175 80.0332 93.5113 80.0411 93.6363C80.0489 93.7535 80.0645 93.8746 80.0879 93.9996C80.1114 94.1246 80.1465 94.2379 80.1934 94.3394C80.2481 94.441 80.3184 94.5074 80.4043 94.5386L80.0293 95.3238C79.9278 95.3238 79.8184 95.3004 79.7012 95.2535C79.5918 95.2066 79.4825 95.1402 79.3731 95.0543C79.2715 94.9683 79.1817 94.8746 79.1036 94.773C79.0332 94.6636 78.9786 94.5464 78.9395 94.4214C78.8848 94.5543 78.7871 94.6793 78.6465 94.7964C78.5137 94.9058 78.3614 95.0074 78.1895 95.1011C78.0176 95.1871 77.8301 95.2535 77.627 95.3004C77.4317 95.3472 77.2481 95.3707 77.0762 95.3707C76.8106 95.3707 76.5528 95.3355 76.3028 95.2652C76.0606 95.1949 75.8457 95.0816 75.6582 94.9254C75.4707 94.7691 75.3223 94.5621 75.2129 94.3043C75.1114 94.0464 75.0606 93.73 75.0606 93.355C75.0606 92.9957 75.1348 92.6871 75.2832 92.4293C75.4395 92.1636 75.6348 91.9488 75.8692 91.7847C76.1114 91.6129 76.3848 91.4879 76.6895 91.4097C76.9942 91.3238 77.3028 91.2808 77.6153 91.2808H78.6114C78.6114 90.898 78.5918 90.5933 78.5528 90.3668C78.5137 90.1402 78.4473 89.9761 78.3536 89.8746C78.2598 89.7652 78.1426 89.6988 78.002 89.6754C77.8692 89.6441 77.709 89.6285 77.5215 89.6285C77.3496 89.6285 77.1856 89.6519 77.0293 89.6988C76.8809 89.7379 76.7403 89.7886 76.6075 89.8511C76.4825 89.9058 76.3692 89.9683 76.2676 90.0386C76.1739 90.1089 76.1036 90.1636 76.0567 90.2027L75.5293 89.3941C75.6075 89.3082 75.7246 89.2222 75.8809 89.1363C76.0371 89.0425 76.2168 88.9605 76.42 88.8902C76.6231 88.8199 76.8418 88.7652 77.0762 88.7261C77.3184 88.6793 77.5684 88.6558 77.8262 88.6558C78.0606 88.6558 78.2871 88.6793 78.5059 88.7261C78.7325 88.773 78.9356 88.8511 79.1153 88.9605C79.3028 89.0699 79.4629 89.2183 79.5957 89.4058C79.7364 89.5855 79.834 89.8121 79.8887 90.0855C79.9434 90.3589 79.9786 90.6363 79.9942 90.9175C80.0176 91.191 80.0293 91.4644 80.0293 91.7379V93.2613ZM78.6231 92.1129H77.8731C77.7168 92.1129 77.5528 92.1285 77.3809 92.1597C77.209 92.191 77.0489 92.2496 76.9004 92.3355C76.752 92.4214 76.627 92.5464 76.5254 92.7105C76.4317 92.8668 76.3848 93.0699 76.3848 93.3199C76.3848 93.7105 76.4707 93.9918 76.6426 94.1636C76.8223 94.3355 77.0801 94.4214 77.4161 94.4214C77.6504 94.4214 77.8731 94.3589 78.084 94.2339C78.3028 94.1089 78.4825 93.941 78.6231 93.73V92.1129ZM87.1661 94.3863C86.9004 94.7222 86.6114 94.9722 86.2989 95.1363C85.9864 95.2925 85.5879 95.3707 85.1036 95.3707C84.6426 95.3707 84.2246 95.2847 83.8496 95.1129C83.4746 94.9332 83.1543 94.6949 82.8887 94.398C82.6231 94.0933 82.42 93.7379 82.2793 93.3316C82.1465 92.9254 82.0801 92.4839 82.0801 92.0074C82.0801 91.5386 82.1543 91.1011 82.3028 90.6949C82.4512 90.2886 82.6582 89.9371 82.9239 89.6402C83.1895 89.3355 83.5098 89.0972 83.8848 88.9254C84.2598 88.7535 84.6778 88.6675 85.1387 88.6675C85.6231 88.6675 86.0371 88.7496 86.3809 88.9136C86.7246 89.0699 87.0293 89.316 87.295 89.6519L86.6621 90.4136C86.5293 90.2574 86.3457 90.1168 86.1114 89.9918C85.877 89.8589 85.5567 89.7925 85.1504 89.7925C84.9161 89.7925 84.7012 89.8472 84.5059 89.9566C84.3106 90.066 84.1426 90.2183 84.002 90.4136C83.8692 90.6089 83.7637 90.8394 83.6856 91.105C83.6153 91.3707 83.5801 91.6597 83.5801 91.9722C83.5801 92.2847 83.6114 92.5777 83.6739 92.8511C83.7442 93.1168 83.8457 93.3511 83.9786 93.5543C84.1114 93.7574 84.2676 93.9175 84.4473 94.0347C84.6348 94.1519 84.8496 94.2105 85.0918 94.2105C85.4434 94.2105 85.7364 94.1558 85.9707 94.0464C86.2129 93.9293 86.4356 93.7886 86.6387 93.6246L87.1661 94.3863ZM92.8965 95.3121L90.4942 92.148V95.3121H89.0645V86.2066H90.4942V91.855L92.6153 88.7027H94.209L91.8887 91.9957L94.5137 95.3121H92.8965Z" fill="#1F4776"/>
</g>
<defs>
<filter id="filter0_d_344_246" x="26.2129" y="41.5347" width="103.836" height="61.8359" filterUnits="userSpaceOnUse" color-interpolation-filters="sRGB">
<feFlood flood-opacity="0" result="BackgroundImageFix"/>
<feColorMatrix in="SourceAlpha" type="matrix" values="0 0 0 0 0 0 0 0 0 0 0 0 0 0 0 0 0 0 127 0" result="hardAlpha"/>
<feOffset dy="4"/>
<feGaussianBlur stdDeviation="2"/>
<feComposite in2="hardAlpha" operator="out"/>
<feColorMatrix type="matrix" values="0 0 0 0 0 0 0 0 0 0 0 0 0 0 0 0 0 0 0.25 0"/>
<feBlend mode="normal" in2="BackgroundImageFix" result="effect1_dropShadow_344_246"/>
<feBlend mode="normal" in="SourceGraphic" in2="effect1_dropShadow_344_246" result="shape"/>
</filter>
</defs>
</svg>
